<svg width="74" height="35" viewBox="0 0 74 35" fill="none" xmlns="http://www.w3.org/2000/svg">
<path fill-rule="evenodd" clip-rule="evenodd" d="M20.3215 19.3133L31.061 13.9592L4.44 0.687582C-1.48 3.63893 -1.48 8.43488 4.44 11.3862L20.3215 19.3133ZM46.0697 15.8795C51.8569 17.2322 60.0349 16.2768 66.0687 13.2687C73.3359 9.64569 74.721 4.47137 69.1615 1.69974C63.5831 -1.07188 53.1851 -0.381337 45.9369 3.24164C39.9031 6.24974 38.0056 10.3268 40.7 13.2119C32.2564 17.4119 3.64308 31.6768 3.64308 31.6768L9.01282 34.3538L35.1215 21.3376L61.2303 34.3538L66.6 31.6768L40.4913 18.6606L46.0697 15.8795Z" fill="#FD0B7D"/>
</svg>
