<svg width="58" height="50" viewBox="0 0 58 50" fill="none" xmlns="http://www.w3.org/2000/svg">
<path fill-rule="evenodd" clip-rule="evenodd" d="M58.0755 8.00439C49.4762 12.2232 45.1765 17.1801 45.1765 22.8755C48.8418 23.2974 51.8727 24.7915 54.2693 27.3579C56.6658 29.9243 57.864 32.895 57.864 36.27C57.864 39.856 56.701 42.8794 54.375 45.3403C52.0489 47.8013 49.1238 49.0317 45.5995 49.0317C41.6522 49.0317 38.2337 47.4321 35.3437 44.2329C32.4538 41.0337 31.0088 37.1489 31.0088 32.5786C31.0088 18.8676 38.6917 8.14506 54.0578 0.410645L58.0755 8.00439ZM27.112 8.00439C18.4421 12.2232 14.1073 17.1801 14.1073 22.8755C17.8431 23.2974 20.9092 24.7915 23.3057 27.3579C25.7022 29.9243 26.9005 32.895 26.9005 36.27C26.9005 39.856 25.7199 42.8794 23.3586 45.3403C20.9973 47.8013 18.0545 49.0317 14.5302 49.0317C10.5829 49.0317 7.18202 47.4321 4.32732 44.2329C1.47262 41.0337 0.0452881 37.1489 0.0452881 32.5786C0.0452881 18.8676 7.69296 8.14506 22.9885 0.410645L27.112 8.00439Z" fill="#D6D6D6"/>
</svg>
